<svg width="41" height="41" viewBox="0 0 41 41" fill="none" xmlns="http://www.w3.org/2000/svg">
<g filter="url(#filter0_d_5829_1030)">
<rect x="4" width="33" height="33" rx="8" fill="#00008B"/>
</g>
<path d="M16.2 15.5C18.5213 15.5 20.4 13.5989 20.4 11.25C20.4 8.90112 18.5213 7 16.2 7C13.8788 7 12 8.90112 12 11.25C12 13.5989 13.8788 15.5 16.2 15.5ZM19.08 16.7143H18.7688C17.9888 17.0938 17.1225 17.3214 16.2 17.3214C15.2775 17.3214 14.415 17.0938 13.6313 16.7143H13.32C10.935 16.7143 9 18.6723 9 21.0857V22.1786C9 23.1842 9.80625 24 10.8 24H21.6C22.5938 24 23.4 23.1842 23.4 22.1786V21.0857C23.4 18.6723 21.465 16.7143 19.08 16.7143ZM27 15.5C28.9875 15.5 30.6 13.8683 30.6 11.8571C30.6 9.84598 28.9875 8.21429 27 8.21429C25.0125 8.21429 23.4 9.84598 23.4 11.8571C23.4 13.8683 25.0125 15.5 27 15.5ZM28.8 16.7143H28.6575C28.1363 16.8964 27.585 17.0179 27 17.0179C26.415 17.0179 25.8638 16.8964 25.3425 16.7143H25.2C24.435 16.7143 23.73 16.9382 23.1112 17.2987C24.0262 18.2967 24.6 19.621 24.6 21.0857V22.5429C24.6 22.6263 24.5813 22.706 24.5775 22.7857H31.2C32.1938 22.7857 33 21.9699 33 20.9643C33 18.6154 31.1213 16.7143 28.8 16.7143Z" fill="white"/>
<defs>
<filter id="filter0_d_5829_1030" x="0" y="0" width="41" height="41" filterUnits="userSpaceOnUse" color-interpolation-filters="sRGB">
<feFlood flood-opacity="0" result="BackgroundImageFix"/>
<feColorMatrix in="SourceAlpha" type="matrix" values="0 0 0 0 0 0 0 0 0 0 0 0 0 0 0 0 0 0 127 0" result="hardAlpha"/>
<feOffset dy="4"/>
<feGaussianBlur stdDeviation="2"/>
<feComposite in2="hardAlpha" operator="out"/>
<feColorMatrix type="matrix" values="0 0 0 0 0.666667 0 0 0 0 0.658824 0 0 0 0 0.654902 0 0 0 0.25 0"/>
<feBlend mode="normal" in2="BackgroundImageFix" result="effect1_dropShadow_5829_1030"/>
<feBlend mode="normal" in="SourceGraphic" in2="effect1_dropShadow_5829_1030" result="shape"/>
</filter>
</defs>
</svg>
