<svg width="41" height="41" viewBox="0 0 41 41" fill="none" xmlns="http://www.w3.org/2000/svg">
<g filter="url(#filter0_d_5879_1135)">
<rect x="4" width="33" height="33" rx="8" fill="#0ACF83"/>
</g>
<path d="M21 16.5C23.525 16.5 25.5714 14.1498 25.5714 11.25C25.5714 8.3502 23.525 6 21 6C18.475 6 16.4286 8.3502 16.4286 11.25C16.4286 14.1498 18.475 16.5 21 16.5ZM24.4214 17.8371L22.7143 25.6875L21.5714 20.1094L22.7143 17.8125H19.2857L20.4286 20.1094L19.2857 25.6875L17.5786 17.8371C15.0321 17.9766 13 20.3678 13 23.325V25.0312C13 26.1182 13.7679 27 14.7143 27H27.2857C28.2321 27 29 26.1182 29 25.0312V23.325C29 20.3678 26.9679 17.9766 24.4214 17.8371Z" fill="white"/>
<defs>
<filter id="filter0_d_5879_1135" x="0" y="0" width="41" height="41" filterUnits="userSpaceOnUse" color-interpolation-filters="sRGB">
<feFlood flood-opacity="0" result="BackgroundImageFix"/>
<feColorMatrix in="SourceAlpha" type="matrix" values="0 0 0 0 0 0 0 0 0 0 0 0 0 0 0 0 0 0 127 0" result="hardAlpha"/>
<feOffset dy="4"/>
<feGaussianBlur stdDeviation="2"/>
<feComposite in2="hardAlpha" operator="out"/>
<feColorMatrix type="matrix" values="0 0 0 0 0.0509804 0 0 0 0 0.0666667 0 0 0 0 0.215686 0 0 0 0.25 0"/>
<feBlend mode="normal" in2="BackgroundImageFix" result="effect1_dropShadow_5879_1135"/>
<feBlend mode="normal" in="SourceGraphic" in2="effect1_dropShadow_5879_1135" result="shape"/>
</filter>
</defs>
</svg>
