<svg width="41" height="41" viewBox="0 0 41 41" fill="none" xmlns="http://www.w3.org/2000/svg">
<g filter="url(#filter0_d_5829_1028)">
<rect x="4" width="33" height="33" rx="8" fill="#FF7043"/>
</g>
<path d="M28.8333 10.875H12.1667C11.0161 10.875 10.0833 11.8824 10.0833 13.125V24.375C10.0833 25.6176 11.0161 26.625 12.1667 26.625H28.8333C29.9839 26.625 30.9167 25.6176 30.9167 24.375V13.125C30.9167 11.8824 29.9839 10.875 28.8333 10.875Z" stroke="white" stroke-width="2" stroke-linecap="round" stroke-linejoin="round"/>
<path d="M24.6667 26.625V8.625C24.6667 8.02826 24.4472 7.45597 24.0565 7.03401C23.6658 6.61205 23.1359 6.375 22.5833 6.375H18.4167C17.8641 6.375 17.3342 6.61205 16.9435 7.03401C16.5528 7.45597 16.3333 8.02826 16.3333 8.625V26.625" stroke="white" stroke-width="2" stroke-linecap="round" stroke-linejoin="round"/>
<defs>
<filter id="filter0_d_5829_1028" x="0" y="0" width="41" height="41" filterUnits="userSpaceOnUse" color-interpolation-filters="sRGB">
<feFlood flood-opacity="0" result="BackgroundImageFix"/>
<feColorMatrix in="SourceAlpha" type="matrix" values="0 0 0 0 0 0 0 0 0 0 0 0 0 0 0 0 0 0 127 0" result="hardAlpha"/>
<feOffset dy="4"/>
<feGaussianBlur stdDeviation="2"/>
<feComposite in2="hardAlpha" operator="out"/>
<feColorMatrix type="matrix" values="0 0 0 0 1 0 0 0 0 0.439216 0 0 0 0 0.262745 0 0 0 0.25 0"/>
<feBlend mode="normal" in2="BackgroundImageFix" result="effect1_dropShadow_5829_1028"/>
<feBlend mode="normal" in="SourceGraphic" in2="effect1_dropShadow_5829_1028" result="shape"/>
</filter>
</defs>
</svg>
